<mxfile host="65bd71144e">
    <diagram id="f1eTiiunRUpET6tkWet_" name="Page-1">
        <mxGraphModel dx="3700" dy="2513" grid="1" gridSize="10" guides="1" tooltips="1" connect="1" arrows="1" fold="1" page="1" pageScale="1" pageWidth="850" pageHeight="1100" math="0" shadow="0">
            <root>
                <mxCell id="0"/>
                <mxCell id="1" parent="0"/>
                <UserObject label="" mermaidData="{&#xa;  &quot;data&quot;: &quot;sequenceDiagram\n    participant User\n    participant App\n    participant SetupModal\n    participant CalendarComponent\n    participant DateUtils\n\n    User-&gt;&gt;App: Load application\n    App-&gt;&gt;SetupModal: Render SetupModal (initially hidden or shown based on state)\n    App-&gt;&gt;CalendarComponent: Render CalendarComponent (initially empty or with default data)\n\n    User-&gt;&gt;SetupModal: Input setup details and submit\n    SetupModal-&gt;&gt;App: Call setState callbacks (setStartDate, setEndDate, setSem, setDept, setStartYear, setEndYear)\n    SetupModal-&gt;&gt;App: Call onClose callback\n    App-&gt;&gt;SetupModal: Update state and re-render (hiding SetupModal)\n    App-&gt;&gt;CalendarComponent: Re-render with updated props (startDate, endDate, sem, dept, years)\n\n    CalendarComponent-&gt;&gt;DateUtils: Use utility functions (e.g., parseISO, eachDayOfInterval) to calculate dates\n    CalendarComponent--&gt;&gt;CalendarComponent: Generate calendar data (weeks)\n    CalendarComponent-&gt;&gt;User: Display generated calendar\n&quot;&#xa;}" id="2">
                    <mxCell style="shape=image;noLabel=1;verticalAlign=top;imageAspect=1;image=data:image/svg+xml,PHN2ZyBhcmlhLXJvbGVkZXNjcmlwdGlvbj0ic2VxdWVuY2UiIHJvbGU9ImdyYXBoaWNzLWRvY3VtZW50IGRvY3VtZW50IiB2aWV3Qm94PSItNTAgLTEwIDE5NTEgNzczIiBzdHlsZT0ibWF4LXdpZHRoOiAxOTUxcHg7IiB4bWxucz0iaHR0cDovL3d3dy53My5vcmcvMjAwMC9zdmciIHdpZHRoPSIxMDAlIiBpZD0iZ2VNZXJtYWlkT3V0cHV0LTE3NDc1NDI2MTUwMzQiPjxnPjxyZWN0IGNsYXNzPSJhY3RvciBhY3Rvci1ib3R0b20iIHJ5PSIzIiByeD0iMyIgbmFtZT0iRGF0ZVV0aWxzIiBoZWlnaHQ9IjY1IiB3aWR0aD0iMTUwIiBzdHJva2U9IiM2NjYiIGZpbGw9IiNlYWVhZWEiIHk9IjY4NyIgeD0iMTcwMSI+PC9yZWN0Pjx0ZXh0IHN0eWxlPSJ0ZXh0LWFuY2hvcjogbWlkZGxlOyBmb250LXNpemU6IDE2cHg7IGZvbnQtd2VpZ2h0OiA0MDA7IiBjbGFzcz0iYWN0b3IgYWN0b3ItYm94IiBhbGlnbm1lbnQtYmFzZWxpbmU9ImNlbnRyYWwiIGRvbWluYW50LWJhc2VsaW5lPSJjZW50cmFsIiB5PSI3MTkuNSIgeD0iMTc3NiI+PHRzcGFuIGR5PSIwIiB4PSIxNzc2Ij5EYXRlVXRpbHM8L3RzcGFuPjwvdGV4dD48L2c+PGc+PHJlY3QgY2xhc3M9ImFjdG9yIGFjdG9yLWJvdHRvbSIgcnk9IjMiIHJ4PSIzIiBuYW1lPSJDYWxlbmRhckNvbXBvbmVudCIgaGVpZ2h0PSI2NSIgd2lkdGg9IjE2NiIgc3Ryb2tlPSIjNjY2IiBmaWxsPSIjZWFlYWVhIiB5PSI2ODciIHg9IjExMDkiPjwvcmVjdD48dGV4dCBzdHlsZT0idGV4dC1hbmNob3I6IG1pZGRsZTsgZm9udC1zaXplOiAxNnB4OyBmb250LXdlaWdodDogNDAwOyIgY2xhc3M9ImFjdG9yIGFjdG9yLWJveCIgYWxpZ25tZW50LWJhc2VsaW5lPSJjZW50cmFsIiBkb21pbmFudC1iYXNlbGluZT0iY2VudHJhbCIgeT0iNzE5LjUiIHg9IjExOTIiPjx0c3BhbiBkeT0iMCIgeD0iMTE5MiI+Q2FsZW5kYXJDb21wb25lbnQ8L3RzcGFuPjwvdGV4dD48L2c+PGc+PHJlY3QgY2xhc3M9ImFjdG9yIGFjdG9yLWJvdHRvbSIgcnk9IjMiIHJ4PSIzIiBuYW1lPSJTZXR1cE1vZGFsIiBoZWlnaHQ9IjY1IiB3aWR0aD0iMTUwIiBzdHJva2U9IiM2NjYiIGZpbGw9IiNlYWVhZWEiIHk9IjY4NyIgeD0iOTA5Ij48L3JlY3Q+PHRleHQgc3R5bGU9InRleHQtYW5jaG9yOiBtaWRkbGU7IGZvbnQtc2l6ZTogMTZweDsgZm9udC13ZWlnaHQ6IDQwMDsiIGNsYXNzPSJhY3RvciBhY3Rvci1ib3giIGFsaWdubWVudC1iYXNlbGluZT0iY2VudHJhbCIgZG9taW5hbnQtYmFzZWxpbmU9ImNlbnRyYWwiIHk9IjcxOS41IiB4PSI5ODQiPjx0c3BhbiBkeT0iMCIgeD0iOTg0Ij5TZXR1cE1vZGFsPC90c3Bhbj48L3RleHQ+PC9nPjxnPjxyZWN0IGNsYXNzPSJhY3RvciBhY3Rvci1ib3R0b20iIHJ5PSIzIiByeD0iMyIgbmFtZT0iQXBwIiBoZWlnaHQ9IjY1IiB3aWR0aD0iMTUwIiBzdHJva2U9IiM2NjYiIGZpbGw9IiNlYWVhZWEiIHk9IjY4NyIgeD0iMjAwIj48L3JlY3Q+PHRleHQgc3R5bGU9InRleHQtYW5jaG9yOiBtaWRkbGU7IGZvbnQtc2l6ZTogMTZweDsgZm9udC13ZWlnaHQ6IDQwMDsiIGNsYXNzPSJhY3RvciBhY3Rvci1ib3giIGFsaWdubWVudC1iYXNlbGluZT0iY2VudHJhbCIgZG9taW5hbnQtYmFzZWxpbmU9ImNlbnRyYWwiIHk9IjcxOS41IiB4PSIyNzUiPjx0c3BhbiBkeT0iMCIgeD0iMjc1Ij5BcHA8L3RzcGFuPjwvdGV4dD48L2c+PGc+PHJlY3QgY2xhc3M9ImFjdG9yIGFjdG9yLWJvdHRvbSIgcnk9IjMiIHJ4PSIzIiBuYW1lPSJVc2VyIiBoZWlnaHQ9IjY1IiB3aWR0aD0iMTUwIiBzdHJva2U9IiM2NjYiIGZpbGw9IiNlYWVhZWEiIHk9IjY4NyIgeD0iMCI+PC9yZWN0Pjx0ZXh0IHN0eWxlPSJ0ZXh0LWFuY2hvcjogbWlkZGxlOyBmb250LXNpemU6IDE2cHg7IGZvbnQtd2VpZ2h0OiA0MDA7IiBjbGFzcz0iYWN0b3IgYWN0b3ItYm94IiBhbGlnbm1lbnQtYmFzZWxpbmU9ImNlbnRyYWwiIGRvbWluYW50LWJhc2VsaW5lPSJjZW50cmFsIiB5PSI3MTkuNSIgeD0iNzUiPjx0c3BhbiBkeT0iMCIgeD0iNzUiPlVzZXI8L3RzcGFuPjwvdGV4dD48L2c+PGc+PGxpbmUgbmFtZT0iRGF0ZVV0aWxzIiBzdHJva2U9IiM5OTkiIHN0cm9rZS13aWR0aD0iMC41cHgiIGNsYXNzPSJhY3Rvci1saW5lIDIwMCIgeTI9IjY4NyIgeDI9IjE3NzYiIHkxPSI2NSIgeDE9IjE3NzYiIGlkPSJhY3RvcjQiPjwvbGluZT48ZyBpZD0icm9vdC00Ij48cmVjdCBjbGFzcz0iYWN0b3IgYWN0b3ItdG9wIiByeT0iMyIgcng9IjMiIG5hbWU9IkRhdGVVdGlscyIgaGVpZ2h0PSI2NSIgd2lkdGg9IjE1MCIgc3Ryb2tlPSIjNjY2IiBmaWxsPSIjZWFlYWVhIiB5PSIwIiB4PSIxNzAxIj48L3JlY3Q+PHRleHQgc3R5bGU9InRleHQtYW5jaG9yOiBtaWRkbGU7IGZvbnQtc2l6ZTogMTZweDsgZm9udC13ZWlnaHQ6IDQwMDsiIGNsYXNzPSJhY3RvciBhY3Rvci1ib3giIGFsaWdubWVudC1iYXNlbGluZT0iY2VudHJhbCIgZG9taW5hbnQtYmFzZWxpbmU9ImNlbnRyYWwiIHk9IjMyLjUiIHg9IjE3NzYiPjx0c3BhbiBkeT0iMCIgeD0iMTc3NiI+RGF0ZVV0aWxzPC90c3Bhbj48L3RleHQ+PC9nPjwvZz48Zz48bGluZSBuYW1lPSJDYWxlbmRhckNvbXBvbmVudCIgc3Ryb2tlPSIjOTk5IiBzdHJva2Utd2lkdGg9IjAuNXB4IiBjbGFzcz0iYWN0b3ItbGluZSAyMDAiIHkyPSI2ODciIHgyPSIxMTkyIiB5MT0iNjUiIHgxPSIxMTkyIiBpZD0iYWN0b3IzIj48L2xpbmU+PGcgaWQ9InJvb3QtMyI+PHJlY3QgY2xhc3M9ImFjdG9yIGFjdG9yLXRvcCIgcnk9IjMiIHJ4PSIzIiBuYW1lPSJDYWxlbmRhckNvbXBvbmVudCIgaGVpZ2h0PSI2NSIgd2lkdGg9IjE2NiIgc3Ryb2tlPSIjNjY2IiBmaWxsPSIjZWFlYWVhIiB5PSIwIiB4PSIxMTA5Ij48L3JlY3Q+PHRleHQgc3R5bGU9InRleHQtYW5jaG9yOiBtaWRkbGU7IGZvbnQtc2l6ZTogMTZweDsgZm9udC13ZWlnaHQ6IDQwMDsiIGNsYXNzPSJhY3RvciBhY3Rvci1ib3giIGFsaWdubWVudC1iYXNlbGluZT0iY2VudHJhbCIgZG9taW5hbnQtYmFzZWxpbmU9ImNlbnRyYWwiIHk9IjMyLjUiIHg9IjExOTIiPjx0c3BhbiBkeT0iMCIgeD0iMTE5MiI+Q2FsZW5kYXJDb21wb25lbnQ8L3RzcGFuPjwvdGV4dD48L2c+PC9nPjxnPjxsaW5lIG5hbWU9IlNldHVwTW9kYWwiIHN0cm9rZT0iIzk5OSIgc3Ryb2tlLXdpZHRoPSIwLjVweCIgY2xhc3M9ImFjdG9yLWxpbmUgMjAwIiB5Mj0iNjg3IiB4Mj0iOTg0IiB5MT0iNjUiIHgxPSI5ODQiIGlkPSJhY3RvcjIiPjwvbGluZT48ZyBpZD0icm9vdC0yIj48cmVjdCBjbGFzcz0iYWN0b3IgYWN0b3ItdG9wIiByeT0iMyIgcng9IjMiIG5hbWU9IlNldHVwTW9kYWwiIGhlaWdodD0iNjUiIHdpZHRoPSIxNTAiIHN0cm9rZT0iIzY2NiIgZmlsbD0iI2VhZWFlYSIgeT0iMCIgeD0iOTA5Ij48L3JlY3Q+PHRleHQgc3R5bGU9InRleHQtYW5jaG9yOiBtaWRkbGU7IGZvbnQtc2l6ZTogMTZweDsgZm9udC13ZWlnaHQ6IDQwMDsiIGNsYXNzPSJhY3RvciBhY3Rvci1ib3giIGFsaWdubWVudC1iYXNlbGluZT0iY2VudHJhbCIgZG9taW5hbnQtYmFzZWxpbmU9ImNlbnRyYWwiIHk9IjMyLjUiIHg9Ijk4NCI+PHRzcGFuIGR5PSIwIiB4PSI5ODQiPlNldHVwTW9kYWw8L3RzcGFuPjwvdGV4dD48L2c+PC9nPjxnPjxsaW5lIG5hbWU9IkFwcCIgc3Ryb2tlPSIjOTk5IiBzdHJva2Utd2lkdGg9IjAuNXB4IiBjbGFzcz0iYWN0b3ItbGluZSAyMDAiIHkyPSI2ODciIHgyPSIyNzUiIHkxPSI2NSIgeDE9IjI3NSIgaWQ9ImFjdG9yMSI+PC9saW5lPjxnIGlkPSJyb290LTEiPjxyZWN0IGNsYXNzPSJhY3RvciBhY3Rvci10b3AiIHJ5PSIzIiByeD0iMyIgbmFtZT0iQXBwIiBoZWlnaHQ9IjY1IiB3aWR0aD0iMTUwIiBzdHJva2U9IiM2NjYiIGZpbGw9IiNlYWVhZWEiIHk9IjAiIHg9IjIwMCI+PC9yZWN0Pjx0ZXh0IHN0eWxlPSJ0ZXh0LWFuY2hvcjogbWlkZGxlOyBmb250LXNpemU6IDE2cHg7IGZvbnQtd2VpZ2h0OiA0MDA7IiBjbGFzcz0iYWN0b3IgYWN0b3ItYm94IiBhbGlnbm1lbnQtYmFzZWxpbmU9ImNlbnRyYWwiIGRvbWluYW50LWJhc2VsaW5lPSJjZW50cmFsIiB5PSIzMi41IiB4PSIyNzUiPjx0c3BhbiBkeT0iMCIgeD0iMjc1Ij5BcHA8L3RzcGFuPjwvdGV4dD48L2c+PC9nPjxnPjxsaW5lIG5hbWU9IlVzZXIiIHN0cm9rZT0iIzk5OSIgc3Ryb2tlLXdpZHRoPSIwLjVweCIgY2xhc3M9ImFjdG9yLWxpbmUgMjAwIiB5Mj0iNjg3IiB4Mj0iNzUiIHkxPSI2NSIgeDE9Ijc1IiBpZD0iYWN0b3IwIj48L2xpbmU+PGcgaWQ9InJvb3QtMCI+PHJlY3QgY2xhc3M9ImFjdG9yIGFjdG9yLXRvcCIgcnk9IjMiIHJ4PSIzIiBuYW1lPSJVc2VyIiBoZWlnaHQ9IjY1IiB3aWR0aD0iMTUwIiBzdHJva2U9IiM2NjYiIGZpbGw9IiNlYWVhZWEiIHk9IjAiIHg9IjAiPjwvcmVjdD48dGV4dCBzdHlsZT0idGV4dC1hbmNob3I6IG1pZGRsZTsgZm9udC1zaXplOiAxNnB4OyBmb250LXdlaWdodDogNDAwOyIgY2xhc3M9ImFjdG9yIGFjdG9yLWJveCIgYWxpZ25tZW50LWJhc2VsaW5lPSJjZW50cmFsIiBkb21pbmFudC1iYXNlbGluZT0iY2VudHJhbCIgeT0iMzIuNSIgeD0iNzUiPjx0c3BhbiBkeT0iMCIgeD0iNzUiPlVzZXI8L3RzcGFuPjwvdGV4dD48L2c+PC9nPjxzdHlsZT4jZ2VNZXJtYWlkT3V0cHV0LTE3NDc1NDI2MTUwMzR7Zm9udC1mYW1pbHk6InRyZWJ1Y2hldCBtcyIsdmVyZGFuYSxhcmlhbCxzYW5zLXNlcmlmO2ZvbnQtc2l6ZToxNnB4O2ZpbGw6IzAwMDAwMDt9I2dlTWVybWFpZE91dHB1dC0xNzQ3NTQyNjE1MDM0IC5lcnJvci1pY29ue2ZpbGw6IzU1MjIyMjt9I2dlTWVybWFpZE91dHB1dC0xNzQ3NTQyNjE1MDM0IC5lcnJvci10ZXh0e2ZpbGw6IzU1MjIyMjtzdHJva2U6IzU1MjIyMjt9I2dlTWVybWFpZE91dHB1dC0xNzQ3NTQyNjE1MDM0IC5lZGdlLXRoaWNrbmVzcy1ub3JtYWx7c3Ryb2tlLXdpZHRoOjFweDt9I2dlTWVybWFpZE91dHB1dC0xNzQ3NTQyNjE1MDM0IC5lZGdlLXRoaWNrbmVzcy10aGlja3tzdHJva2Utd2lkdGg6My41cHg7fSNnZU1lcm1haWRPdXRwdXQtMTc0NzU0MjYxNTAzNCAuZWRnZS1wYXR0ZXJuLXNvbGlke3N0cm9rZS1kYXNoYXJyYXk6MDt9I2dlTWVybWFpZE91dHB1dC0xNzQ3NTQyNjE1MDM0IC5lZGdlLXRoaWNrbmVzcy1pbnZpc2libGV7c3Ryb2tlLXdpZHRoOjA7ZmlsbDpub25lO30jZ2VNZXJtYWlkT3V0cHV0LTE3NDc1NDI2MTUwMzQgLmVkZ2UtcGF0dGVybi1kYXNoZWR7c3Ryb2tlLWRhc2hhcnJheTozO30jZ2VNZXJtYWlkT3V0cHV0LTE3NDc1NDI2MTUwMzQgLmVkZ2UtcGF0dGVybi1kb3R0ZWR7c3Ryb2tlLWRhc2hhcnJheToyO30jZ2VNZXJtYWlkT3V0cHV0LTE3NDc1NDI2MTUwMzQgLm1hcmtlcntmaWxsOiM2NjY7c3Ryb2tlOiM2NjY7fSNnZU1lcm1haWRPdXRwdXQtMTc0NzU0MjYxNTAzNCAubWFya2VyLmNyb3Nze3N0cm9rZTojNjY2O30jZ2VNZXJtYWlkT3V0cHV0LTE3NDc1NDI2MTUwMzQgc3Zne2ZvbnQtZmFtaWx5OiJ0cmVidWNoZXQgbXMiLHZlcmRhbmEsYXJpYWwsc2Fucy1zZXJpZjtmb250LXNpemU6MTZweDt9I2dlTWVybWFpZE91dHB1dC0xNzQ3NTQyNjE1MDM0IHB7bWFyZ2luOjA7fSNnZU1lcm1haWRPdXRwdXQtMTc0NzU0MjYxNTAzNCAuYWN0b3J7c3Ryb2tlOmhzbCgwLCAwJSwgODMlKTtmaWxsOiNlZWU7fSNnZU1lcm1haWRPdXRwdXQtMTc0NzU0MjYxNTAzNCB0ZXh0LmFjdG9yJmd0O3RzcGFue2ZpbGw6IzMzMztzdHJva2U6bm9uZTt9I2dlTWVybWFpZE91dHB1dC0xNzQ3NTQyNjE1MDM0IC5hY3Rvci1saW5le3N0cm9rZTpoc2woMCwgMCUsIDgzJSk7fSNnZU1lcm1haWRPdXRwdXQtMTc0NzU0MjYxNTAzNCAubWVzc2FnZUxpbmUwe3N0cm9rZS13aWR0aDoxLjU7c3Ryb2tlLWRhc2hhcnJheTpub25lO3N0cm9rZTojMzMzO30jZ2VNZXJtYWlkT3V0cHV0LTE3NDc1NDI2MTUwMzQgLm1lc3NhZ2VMaW5lMXtzdHJva2Utd2lkdGg6MS41O3N0cm9rZS1kYXNoYXJyYXk6MiwyO3N0cm9rZTojMzMzO30jZ2VNZXJtYWlkT3V0cHV0LTE3NDc1NDI2MTUwMzQgI2Fycm93aGVhZCBwYXRoe2ZpbGw6IzMzMztzdHJva2U6IzMzMzt9I2dlTWVybWFpZE91dHB1dC0xNzQ3NTQyNjE1MDM0IC5zZXF1ZW5jZU51bWJlcntmaWxsOndoaXRlO30jZ2VNZXJtYWlkT3V0cHV0LTE3NDc1NDI2MTUwMzQgI3NlcXVlbmNlbnVtYmVye2ZpbGw6IzMzMzt9I2dlTWVybWFpZE91dHB1dC0xNzQ3NTQyNjE1MDM0ICNjcm9zc2hlYWQgcGF0aHtmaWxsOiMzMzM7c3Ryb2tlOiMzMzM7fSNnZU1lcm1haWRPdXRwdXQtMTc0NzU0MjYxNTAzNCAubWVzc2FnZVRleHR7ZmlsbDojMzMzO3N0cm9rZTpub25lO30jZ2VNZXJtYWlkT3V0cHV0LTE3NDc1NDI2MTUwMzQgLmxhYmVsQm94e3N0cm9rZTpoc2woMCwgMCUsIDgzJSk7ZmlsbDojZWVlO30jZ2VNZXJtYWlkT3V0cHV0LTE3NDc1NDI2MTUwMzQgLmxhYmVsVGV4dCwjZ2VNZXJtYWlkT3V0cHV0LTE3NDc1NDI2MTUwMzQgLmxhYmVsVGV4dCZndDt0c3BhbntmaWxsOiMzMzM7c3Ryb2tlOm5vbmU7fSNnZU1lcm1haWRPdXRwdXQtMTc0NzU0MjYxNTAzNCAubG9vcFRleHQsI2dlTWVybWFpZE91dHB1dC0xNzQ3NTQyNjE1MDM0IC5sb29wVGV4dCZndDt0c3BhbntmaWxsOiMzMzM7c3Ryb2tlOm5vbmU7fSNnZU1lcm1haWRPdXRwdXQtMTc0NzU0MjYxNTAzNCAubG9vcExpbmV7c3Ryb2tlLXdpZHRoOjJweDtzdHJva2UtZGFzaGFycmF5OjIsMjtzdHJva2U6aHNsKDAsIDAlLCA4MyUpO2ZpbGw6aHNsKDAsIDAlLCA4MyUpO30jZ2VNZXJtYWlkT3V0cHV0LTE3NDc1NDI2MTUwMzQgLm5vdGV7c3Ryb2tlOiM5OTk7ZmlsbDojNjY2O30jZ2VNZXJtYWlkT3V0cHV0LTE3NDc1NDI2MTUwMzQgLm5vdGVUZXh0LCNnZU1lcm1haWRPdXRwdXQtMTc0NzU0MjYxNTAzNCAubm90ZVRleHQmZ3Q7dHNwYW57ZmlsbDojZmZmO3N0cm9rZTpub25lO30jZ2VNZXJtYWlkT3V0cHV0LTE3NDc1NDI2MTUwMzQgLmFjdGl2YXRpb24we2ZpbGw6I2Y0ZjRmNDtzdHJva2U6IzY2Njt9I2dlTWVybWFpZE91dHB1dC0xNzQ3NTQyNjE1MDM0IC5hY3RpdmF0aW9uMXtmaWxsOiNmNGY0ZjQ7c3Ryb2tlOiM2NjY7fSNnZU1lcm1haWRPdXRwdXQtMTc0NzU0MjYxNTAzNCAuYWN0aXZhdGlvbjJ7ZmlsbDojZjRmNGY0O3N0cm9rZTojNjY2O30jZ2VNZXJtYWlkT3V0cHV0LTE3NDc1NDI2MTUwMzQgLmFjdG9yUG9wdXBNZW51e3Bvc2l0aW9uOmFic29sdXRlO30jZ2VNZXJtYWlkT3V0cHV0LTE3NDc1NDI2MTUwMzQgLmFjdG9yUG9wdXBNZW51UGFuZWx7cG9zaXRpb246YWJzb2x1dGU7ZmlsbDojZWVlO2JveC1zaGFkb3c6MHB4IDhweCAxNnB4IDBweCByZ2JhKDAsMCwwLDAuMik7ZmlsdGVyOmRyb3Atc2hhZG93KDNweCA1cHggMnB4IHJnYigwIDAgMCAvIDAuNCkpO30jZ2VNZXJtYWlkT3V0cHV0LTE3NDc1NDI2MTUwMzQgLmFjdG9yLW1hbiBsaW5le3N0cm9rZTpoc2woMCwgMCUsIDgzJSk7ZmlsbDojZWVlO30jZ2VNZXJtYWlkT3V0cHV0LTE3NDc1NDI2MTUwMzQgLmFjdG9yLW1hbiBjaXJjbGUsI2dlTWVybWFpZE91dHB1dC0xNzQ3NTQyNjE1MDM0IGxpbmV7c3Ryb2tlOmhzbCgwLCAwJSwgODMlKTtmaWxsOiNlZWU7c3Ryb2tlLXdpZHRoOjJweDt9I2dlTWVybWFpZE91dHB1dC0xNzQ3NTQyNjE1MDM0IDpyb290ey0tbWVybWFpZC1mb250LWZhbWlseToidHJlYnVjaGV0IG1zIix2ZXJkYW5hLGFyaWFsLHNhbnMtc2VyaWY7fTwvc3R5bGU+PGc+PC9nPjxkZWZzPjxzeW1ib2wgaGVpZ2h0PSIyNCIgd2lkdGg9IjI0IiBpZD0iY29tcHV0ZXIiPjxwYXRoIGQ9Ik0yIDJ2MTNoMjB2LTEzaC0yMHptMTggMTFoLTE2di05aDE2djl6bS0xMC4yMjggNmwuNDY2LTFoMy41MjRsLjQ2NyAxaC00LjQ1N3ptMTQuMjI4IDNoLTI0bDItNmgyLjEwNGwtMS4zMyA0aDE4LjQ1bC0xLjI5Ny00aDIuMDczbDIgNnptLTUtMTBoLTE0di03aDE0djd6IiB0cmFuc2Zvcm09InNjYWxlKC41KSI+PC9wYXRoPjwvc3ltYm9sPjwvZGVmcz48ZGVmcz48c3ltYm9sIGNsaXAtcnVsZT0iZXZlbm9kZCIgZmlsbC1ydWxlPSJldmVub2RkIiBpZD0iZGF0YWJhc2UiPjxwYXRoIGQ9Ik0xMi4yNTguMDAxbC4yNTYuMDA0LjI1NS4wMDUuMjUzLjAwOC4yNTEuMDEuMjQ5LjAxMi4yNDcuMDE1LjI0Ni4wMTYuMjQyLjAxOS4yNDEuMDIuMjM5LjAyMy4yMzYuMDI0LjIzMy4wMjcuMjMxLjAyOC4yMjkuMDMxLjIyNS4wMzIuMjIzLjAzNC4yMi4wMzYuMjE3LjAzOC4yMTQuMDQuMjExLjA0MS4yMDguMDQzLjIwNS4wNDUuMjAxLjA0Ni4xOTguMDQ4LjE5NC4wNS4xOTEuMDUxLjE4Ny4wNTMuMTgzLjA1NC4xOC4wNTYuMTc1LjA1Ny4xNzIuMDU5LjE2OC4wNi4xNjMuMDYxLjE2LjA2My4xNTUuMDY0LjE1LjA2Ni4wNzQuMDMzLjA3My4wMzMuMDcxLjAzNC4wNy4wMzQuMDY5LjAzNS4wNjguMDM1LjA2Ny4wMzUuMDY2LjAzNS4wNjQuMDM2LjA2NC4wMzYuMDYyLjAzNi4wNi4wMzYuMDYuMDM3LjA1OC4wMzcuMDU4LjAzNy4wNTUuMDM4LjA1NS4wMzguMDUzLjAzOC4wNTIuMDM4LjA1MS4wMzkuMDUuMDM5LjA0OC4wMzkuMDQ3LjAzOS4wNDUuMDQuMDQ0LjA0LjA0My4wNC4wNDEuMDQuMDQuMDQxLjAzOS4wNDEuMDM3LjA0MS4wMzYuMDQxLjAzNC4wNDEuMDMzLjA0Mi4wMzIuMDQyLjAzLjA0Mi4wMjkuMDQyLjAyNy4wNDIuMDI2LjA0My4wMjQuMDQzLjAyMy4wNDMuMDIxLjA0My4wMi4wNDMuMDE4LjA0NC4wMTcuMDQzLjAxNS4wNDQuMDEzLjA0NC4wMTIuMDQ0LjAxMS4wNDUuMDA5LjA0NC4wMDcuMDQ1LjAwNi4wNDUuMDA0LjA0NS4wMDIuMDQ1LjAwMS4wNDV2MTdsLS4wMDEuMDQ1LS4wMDIuMDQ1LS4wMDQuMDQ1LS4wMDYuMDQ1LS4wMDcuMDQ1LS4wMDkuMDQ0LS4wMTEuMDQ1LS4wMTIuMDQ0LS4wMTMuMDQ0LS4wMTUuMDQ0LS4wMTcuMDQzLS4wMTguMDQ0LS4wMi4wNDMtLjAyMS4wNDMtLjAyMy4wNDMtLjAyNC4wNDMtLjAyNi4wNDMtLjAyNy4wNDItLjAyOS4wNDItLjAzLjA0Mi0uMDMyLjA0Mi0uMDMzLjA0Mi0uMDM0LjA0MS0uMDM2LjA0MS0uMDM3LjA0MS0uMDM5LjA0MS0uMDQuMDQxLS4wNDEuMDQtLjA0My4wNC0uMDQ0LjA0LS4wNDUuMDQtLjA0Ny4wMzktLjA0OC4wMzktLjA1LjAzOS0uMDUxLjAzOS0uMDUyLjAzOC0uMDUzLjAzOC0uMDU1LjAzOC0uMDU1LjAzOC0uMDU4LjAzNy0uMDU4LjAzNy0uMDYuMDM3LS4wNi4wMzYtLjA2Mi4wMzYtLjA2NC4wMzYtLjA2NC4wMzYtLjA2Ni4wMzUtLjA2Ny4wMzUtLjA2OC4wMzUtLjA2OS4wMzUtLjA3LjAzNC0uMDcxLjAzNC0uMDczLjAzMy0uMDc0LjAzMy0uMTUuMDY2LS4xNTUuMDY0LS4xNi4wNjMtLjE2My4wNjEtLjE2OC4wNi0uMTcyLjA1OS0uMTc1LjA1Ny0uMTguMDU2LS4xODMuMDU0LS4xODcuMDUzLS4xOTEuMDUxLS4xOTQuMDUtLjE5OC4wNDgtLjIwMS4wNDYtLjIwNS4wNDUtLjIwOC4wNDMtLjIxMS4wNDEtLjIxNC4wNC0uMjE3LjAzOC0uMjIuMDM2LS4yMjMuMDM0LS4yMjUuMDMyLS4yMjkuMDMxLS4yMzEuMDI4LS4yMzMuMDI3LS4yMzYuMDI0LS4yMzkuMDIzLS4yNDEuMDItLjI0Mi4wMTktLjI0Ni4wMTYtLjI0Ny4wMTUtLjI0OS4wMTItLjI1MS4wMS0uMjUzLjAwOC0uMjU1LjAwNS0uMjU2LjAwNC0uMjU4LjAwMS0uMjU4LS4wMDEtLjI1Ni0uMDA0LS4yNTUtLjAwNS0uMjUzLS4wMDgtLjI1MS0uMDEtLjI0OS0uMDEyLS4yNDctLjAxNS0uMjQ1LS4wMTYtLjI0My0uMDE5LS4yNDEtLjAyLS4yMzgtLjAyMy0uMjM2LS4wMjQtLjIzNC0uMDI3LS4yMzEtLjAyOC0uMjI4LS4wMzEtLjIyNi0uMDMyLS4yMjMtLjAzNC0uMjItLjAzNi0uMjE3LS4wMzgtLjIxNC0uMDQtLjIxMS0uMDQxLS4yMDgtLjA0My0uMjA0LS4wNDUtLjIwMS0uMDQ2LS4xOTgtLjA0OC0uMTk1LS4wNS0uMTktLjA1MS0uMTg3LS4wNTMtLjE4NC0uMDU0LS4xNzktLjA1Ni0uMTc2LS4wNTctLjE3Mi0uMDU5LS4xNjctLjA2LS4xNjQtLjA2MS0uMTU5LS4wNjMtLjE1NS0uMDY0LS4xNTEtLjA2Ni0uMDc0LS4wMzMtLjA3Mi0uMDMzLS4wNzItLjAzNC0uMDctLjAzNC0uMDY5LS4wMzUtLjA2OC0uMDM1LS4wNjctLjAzNS0uMDY2LS4wMzUtLjA2NC0uMDM2LS4wNjMtLjAzNi0uMDYyLS4wMzYtLjA2MS0uMDM2LS4wNi0uMDM3LS4wNTgtLjAzNy0uMDU3LS4wMzctLjA1Ni0uMDM4LS4wNTUtLjAzOC0uMDUzLS4wMzgtLjA1Mi0uMDM4LS4wNTEtLjAzOS0uMDQ5LS4wMzktLjA0OS0uMDM5LS4wNDYtLjAzOS0uMDQ2LS4wNC0uMDQ0LS4wNC0uMDQzLS4wNC0uMDQxLS4wNC0uMDQtLjA0MS0uMDM5LS4wNDEtLjAzNy0uMDQxLS4wMzYtLjA0MS0uMDM0LS4wNDEtLjAzMy0uMDQyLS4wMzItLjA0Mi0uMDMtLjA0Mi0uMDI5LS4wNDItLjAyNy0uMDQyLS4wMjYtLjA0My0uMDI0LS4wNDMtLjAyMy0uMDQzLS4wMjEtLjA0My0uMDItLjA0My0uMDE4LS4wNDQtLjAxNy0uMDQzLS4wMTUtLjA0NC0uMDEzLS4wNDQtLjAxMi0uMDQ0LS4wMTEtLjA0NS0uMDA5LS4wNDQtLjAwNy0uMDQ1LS4wMDYtLjA0NS0uMDA0LS4wNDUtLjAwMi0uMDQ1LS4wMDEtLjA0NXYtMTdsLjAwMS0uMDQ1LjAwMi0uMDQ1LjAwNC0uMDQ1LjAwNi0uMDQ1LjAwNy0uMDQ1LjAwOS0uMDQ0LjAxMS0uMDQ1LjAxMi0uMDQ0LjAxMy0uMDQ0LjAxNS0uMDQ0LjAxNy0uMDQzLjAxOC0uMDQ0LjAyLS4wNDMuMDIxLS4wNDMuMDIzLS4wNDMuMDI0LS4wNDMuMDI2LS4wNDMuMDI3LS4wNDIuMDI5LS4wNDIuMDMtLjA0Mi4wMzItLjA0Mi4wMzMtLjA0Mi4wMzQtLjA0MS4wMzYtLjA0MS4wMzctLjA0MS4wMzktLjA0MS4wNC0uMDQxLjA0MS0uMDQuMDQzLS4wNC4wNDQtLjA0LjA0Ni0uMDQuMDQ2LS4wMzkuMDQ5LS4wMzkuMDQ5LS4wMzkuMDUxLS4wMzkuMDUyLS4wMzguMDUzLS4wMzguMDU1LS4wMzguMDU2LS4wMzguMDU3LS4wMzcuMDU4LS4wMzcuMDYtLjAzNy4wNjEtLjAzNi4wNjItLjAzNi4wNjMtLjAzNi4wNjQtLjAzNi4wNjYtLjAzNS4wNjctLjAzNS4wNjgtLjAzNS4wNjktLjAzNS4wNy0uMDM0LjA3Mi0uMDM0LjA3Mi0uMDMzLjA3NC0uMDMzLjE1MS0uMDY2LjE1NS0uMDY0LjE1OS0uMDYzLjE2NC0uMDYxLjE2Ny0uMDYuMTcyLS4wNTkuMTc2LS4wNTcuMTc5LS4wNTYuMTg0LS4wNTQuMTg3LS4wNTMuMTktLjA1MS4xOTUtLjA1LjE5OC0uMDQ4LjIwMS0uMDQ2LjIwNC0uMDQ1LjIwOC0uMDQzLjIxMS0uMDQxLjIxNC0uMDQuMjE3LS4wMzguMjItLjAzNi4yMjMtLjAzNC4yMjYtLjAzMi4yMjgtLjAzMS4yMzEtLjAyOC4yMzQtLjAyNy4yMzYtLjAyNC4yMzgtLjAyMy4yNDEtLjAyLjI0My0uMDE5LjI0NS0uMDE2LjI0Ny0uMDE1LjI0OS0uMDEyLjI1MS0uMDEuMjUzLS4wMDguMjU1LS4wMDUuMjU2LS4wMDQuMjU4LS4wMDEuMjU4LjAwMXptLTkuMjU4IDIwLjQ5OXYuMDFsLjAwMS4wMjEuMDAzLjAyMS4wMDQuMDIyLjAwNS4wMjEuMDA2LjAyMi4wMDcuMDIyLjAwOS4wMjMuMDEuMDIyLjAxMS4wMjMuMDEyLjAyMy4wMTMuMDIzLjAxNS4wMjMuMDE2LjAyNC4wMTcuMDIzLjAxOC4wMjQuMDE5LjAyNC4wMjEuMDI0LjAyMi4wMjUuMDIzLjAyNC4wMjQuMDI1LjA1Mi4wNDkuMDU2LjA1LjA2MS4wNTEuMDY2LjA1MS4wNy4wNTEuMDc1LjA1MS4wNzkuMDUyLjA4NC4wNTIuMDg4LjA1Mi4wOTIuMDUyLjA5Ny4wNTIuMTAyLjA1MS4xMDUuMDUyLjExLjA1Mi4xMTQuMDUxLjExOS4wNTEuMTIzLjA1MS4xMjcuMDUuMTMxLjA1LjEzNS4wNS4xMzkuMDQ4LjE0NC4wNDkuMTQ3LjA0Ny4xNTIuMDQ3LjE1NS4wNDcuMTYuMDQ1LjE2My4wNDUuMTY3LjA0My4xNzEuMDQzLjE3Ni4wNDEuMTc4LjA0MS4xODMuMDM5LjE4Ny4wMzkuMTkuMDM3LjE5NC4wMzUuMTk3LjAzNS4yMDIuMDMzLjIwNC4wMzEuMjA5LjAzLjIxMi4wMjkuMjE2LjAyNy4yMTkuMDI1LjIyMi4wMjQuMjI2LjAyMS4yMy4wMi4yMzMuMDE4LjIzNi4wMTYuMjQuMDE1LjI0My4wMTIuMjQ2LjAxLjI0OS4wMDguMjUzLjAwNS4yNTYuMDA0LjI1OS4wMDEuMjYtLjAwMS4yNTctLjAwNC4yNTQtLjAwNS4yNS0uMDA4LjI0Ny0uMDExLjI0NC0uMDEyLjI0MS0uMDE0LjIzNy0uMDE2LjIzMy0uMDE4LjIzMS0uMDIxLjIyNi0uMDIxLjIyNC0uMDI0LjIyLS4wMjYuMjE2LS4wMjcuMjEyLS4wMjguMjEtLjAzMS4yMDUtLjAzMS4yMDItLjAzNC4xOTgtLjAzNC4xOTQtLjAzNi4xOTEtLjAzNy4xODctLjAzOS4xODMtLjA0LjE3OS0uMDQuMTc1LS4wNDIuMTcyLS4wNDMuMTY4LS4wNDQuMTYzLS4wNDUuMTYtLjA0Ni4xNTUtLjA0Ni4xNTItLjA0Ny4xNDgtLjA0OC4xNDMtLjA0OS4xMzktLjA0OS4xMzYtLjA1LjEzMS0uMDUuMTI2LS4wNS4xMjMtLjA1MS4xMTgtLjA1Mi4xMTQtLjA1MS4xMS0uMDUyLjEwNi0uMDUyLjEwMS0uMDUyLjA5Ni0uMDUyLjA5Mi0uMDUyLjA4OC0uMDUzLjA4My0uMDUxLjA3OS0uMDUyLjA3NC0uMDUyLjA3LS4wNTEuMDY1LS4wNTEuMDYtLjA1MS4wNTYtLjA1LjA1MS0uMDUuMDIzLS4wMjQuMDIzLS4wMjUuMDIxLS4wMjQuMDItLjAyNC4wMTktLjAyNC4wMTgtLjAyNC4wMTctLjAyNC4wMTUtLjAyMy4wMTQtLjAyNC4wMTMtLjAyMy4wMTItLjAyMy4wMS0uMDIzLjAxLS4wMjIuMDA4LS4wMjIuMDA2LS4wMjIuMDA2LS4wMjIuMDA0LS4wMjIuMDA0LS4wMjEuMDAxLS4wMjEuMDAxLS4wMjF2LTQuMTI3bC0uMDc3LjA1NS0uMDguMDUzLS4wODMuMDU0LS4wODUuMDUzLS4wODcuMDUyLS4wOS4wNTItLjA5My4wNTEtLjA5NS4wNS0uMDk3LjA1LS4xLjA0OS0uMTAyLjA0OS0uMTA1LjA0OC0uMTA2LjA0Ny0uMTA5LjA0Ny0uMTExLjA0Ni0uMTE0LjA0NS0uMTE1LjA0NS0uMTE4LjA0NC0uMTIuMDQzLS4xMjIuMDQyLS4xMjQuMDQyLS4xMjYuMDQxLS4xMjguMDQtLjEzLjA0LS4xMzIuMDM4LS4xMzQuMDM4LS4xMzUuMDM3LS4xMzguMDM3LS4xMzkuMDM1LS4xNDIuMDM1LS4xNDMuMDM0LS4xNDQuMDMzLS4xNDcuMDMyLS4xNDguMDMxLS4xNS4wMy0uMTUxLjAzLS4xNTMuMDI5LS4xNTQuMDI3LS4xNTYuMDI3LS4xNTguMDI2LS4xNTkuMDI1LS4xNjEuMDI0LS4xNjIuMDIzLS4xNjMuMDIyLS4xNjUuMDIxLS4xNjYuMDItLjE2Ny4wMTktLjE2OS4wMTgtLjE2OS4wMTctLjE3MS4wMTYtLjE3My4wMTUtLjE3My4wMTQtLjE3NS4wMTMtLjE3NS4wMTItLjE3Ny4wMTEtLjE3OC4wMS0uMTc5LjAwOC0uMTc5LjAwOC0uMTgxLjAwNi0uMTgyLjAwNS0uMTgyLjAwNC0uMTg0LjAwMy0uMTg0LjAwMmgtLjM3bC0uMTg0LS4wMDItLjE4NC0uMDAzLS4xODItLjAwNC0uMTgyLS4wMDUtLjE4MS0uMDA2LS4xNzktLjAwOC0uMTc5LS4wMDgtLjE3OC0uMDEtLjE3Ni0uMDExLS4xNzYtLjAxMi0uMTc1LS4wMTMtLjE3My0uMDE0LS4xNzItLjAxNS0uMTcxLS4wMTYtLjE3LS4wMTctLjE2OS0uMDE4LS4xNjctLjAxOS0uMTY2LS4wMi0uMTY1LS4wMjEtLjE2My0uMDIyLS4xNjItLjAyMy0uMTYxLS4wMjQtLjE1OS0uMDI1LS4xNTctLjAyNi0uMTU2LS4wMjctLjE1NS0uMDI3LS4xNTMtLjAyOS0uMTUxLS4wMy0uMTUtLjAzLS4xNDgtLjAzMS0uMTQ2LS4wMzItLjE0NS0uMDMzLS4xNDMtLjAzNC0uMTQxLS4wMzUtLjE0LS4wMzUtLjEzNy0uMDM3LS4xMzYtLjAzNy0uMTM0LS4wMzgtLjEzMi0uMDM4LS4xMy0uMDQtLjEyOC0uMDQtLjEyNi0uMDQxLS4xMjQtLjA0Mi0uMTIyLS4wNDItLjEyLS4wNDQtLjExNy0uMDQzLS4xMTYtLjA0NS0uMTEzLS4wNDUtLjExMi0uMDQ2LS4xMDktLjA0Ny0uMTA2LS4wNDctLjEwNS0uMDQ4LS4xMDItLjA0OS0uMS0uMDQ5LS4wOTctLjA1LS4wOTUtLjA1LS4wOTMtLjA1Mi0uMDktLjA1MS0uMDg3LS4wNTItLjA4NS0uMDUzLS4wODMtLjA1NC0uMDgtLjA1NC0uMDc3LS4wNTR2NC4xMjd6bTAtNS42NTR2LjAxMWwuMDAxLjAyMS4wMDMuMDIxLjAwNC4wMjEuMDA1LjAyMi4wMDYuMDIyLjAwNy4wMjIuMDA5LjAyMi4wMS4wMjIuMDExLjAyMy4wMTIuMDIzLjAxMy4wMjMuMDE1LjAyNC4wMTYuMDIzLjAxNy4wMjQuMDE4LjAyNC4wMTkuMDI0LjAyMS4wMjQuMDIyLjAyNC4wMjMuMDI1LjAyNC4wMjQuMDUyLjA1LjA1Ni4wNS4wNjEuMDUuMDY2LjA1MS4wNy4wNTEuMDc1LjA1Mi4wNzkuMDUxLjA4NC4wNTIuMDg4LjA1Mi4wOTIuMDUyLjA5Ny4wNTIuMTAyLjA1Mi4xMDUuMDUyLjExLjA1MS4xMTQuMDUxLjExOS4wNTIuMTIzLjA1LjEyNy4wNTEuMTMxLjA1LjEzNS4wNDkuMTM5LjA0OS4xNDQuMDQ4LjE0Ny4wNDguMTUyLjA0Ny4xNTUuMDQ2LjE2LjA0NS4xNjMuMDQ1LjE2Ny4wNDQuMTcxLjA0Mi4xNzYuMDQyLjE3OC4wNC4xODMuMDQuMTg3LjAzOC4xOS4wMzcuMTk0LjAzNi4xOTcuMDM0LjIwMi4wMzMuMjA0LjAzMi4yMDkuMDMuMjEyLjAyOC4yMTYuMDI3LjIxOS4wMjUuMjIyLjAyNC4yMjYuMDIyLjIzLjAyLjIzMy4wMTguMjM2LjAxNi4yNC4wMTQuMjQzLjAxMi4yNDYuMDEuMjQ5LjAwOC4yNTMuMDA2LjI1Ni4wMDMuMjU5LjAwMS4yNi0uMDAxLjI1Ny0uMDAzLjI1NC0uMDA2LjI1LS4wMDguMjQ3LS4wMS4yNDQtLjAxMi4yNDEtLjAxNS4yMzctLjAxNi4yMzMtLjAxOC4yMzEtLjAyLjIyNi0uMDIyLjIyNC0uMDI0LjIyLS4wMjUuMjE2LS4wMjcuMjEyLS4wMjkuMjEtLjAzLjIwNS0uMDMyLjIwMi0uMDMzLjE5OC0uMDM1LjE5NC0uMDM2LjE5MS0uMDM3LjE4Ny0uMDM5LjE4My0uMDM5LjE3OS0uMDQxLjE3NS0uMDQyLjE3Mi0uMDQzLjE2OC0uMDQ0LjE2My0uMDQ1LjE2LS4wNDUuMTU1LS4wNDcuMTUyLS4wNDcuMTQ4LS4wNDguMTQzLS4wNDguMTM5LS4wNS4xMzYtLjA0OS4xMzEtLjA1LjEyNi0uMDUxLjEyMy0uMDUxLjExOC0uMDUxLjExNC0uMDUyLjExLS4wNTIuMTA2LS4wNTIuMTAxLS4wNTIuMDk2LS4wNTIuMDkyLS4wNTIuMDg4LS4wNTIuMDgzLS4wNTIuMDc5LS4wNTIuMDc0LS4wNTEuMDctLjA1Mi4wNjUtLjA1MS4wNi0uMDUuMDU2LS4wNTEuMDUxLS4wNDkuMDIzLS4wMjUuMDIzLS4wMjQuMDIxLS4wMjUuMDItLjAyNC4wMTktLjAyNC4wMTgtLjAyNC4wMTctLjAyNC4wMTUtLjAyMy4wMTQtLjAyMy4wMTMtLjAyNC4wMTItLjAyMi4wMS0uMDIzLjAxLS4wMjMuMDA4LS4wMjIuMDA2LS4wMjIuMDA2LS4wMjIuMDA0LS4wMjEuMDA0LS4wMjIuMDAxLS4wMjEuMDAxLS4wMjF2LTQuMTM5bC0uMDc3LjA1NC0uMDguMDU0LS4wODMuMDU0LS4wODUuMDUyLS4wODcuMDUzLS4wOS4wNTEtLjA5My4wNTEtLjA5NS4wNTEtLjA5Ny4wNS0uMS4wNDktLjEwMi4wNDktLjEwNS4wNDgtLjEwNi4wNDctLjEwOS4wNDctLjExMS4wNDYtLjExNC4wNDUtLjExNS4wNDQtLjExOC4wNDQtLjEyLjA0NC0uMTIyLjA0Mi0uMTI0LjA0Mi0uMTI2LjA0MS0uMTI4LjA0LS4xMy4wMzktLjEzMi4wMzktLjEzNC4wMzgtLjEzNS4wMzctLjEzOC4wMzYtLjEzOS4wMzYtLjE0Mi4wMzUtLjE0My4wMzMtLjE0NC4wMzMtLjE0Ny4wMzMtLjE0OC4wMzEtLjE1LjAzLS4xNTEuMDMtLjE1My4wMjgtLjE1NC4wMjgtLjE1Ni4wMjctLjE1OC4wMjYtLjE1OS4wMjUtLjE2MS4wMjQtLjE2Mi4wMjMtLjE2My4wMjItLjE2NS4wMjEtLjE2Ni4wMi0uMTY3LjAxOS0uMTY5LjAxOC0uMTY5LjAxNy0uMTcxLjAxNi0uMTczLjAxNS0uMTczLjAxNC0uMTc1LjAxMy0uMTc1LjAxMi0uMTc3LjAxMS0uMTc4LjAwOS0uMTc5LjAwOS0uMTc5LjAwNy0uMTgxLjAwNy0uMTgyLjAwNS0uMTgyLjAwNC0uMTg0LjAwMy0uMTg0LjAwMmgtLjM3bC0uMTg0LS4wMDItLjE4NC0uMDAzLS4xODItLjAwNC0uMTgyLS4wMDUtLjE4MS0uMDA3LS4xNzktLjAwNy0uMTc5LS4wMDktLjE3OC0uMDA5LS4xNzYtLjAxMS0uMTc2LS4wMTItLjE3NS0uMDEzLS4xNzMtLjAxNC0uMTcyLS4wMTUtLjE3MS0uMDE2LS4xNy0uMDE3LS4xNjktLjAxOC0uMTY3LS4wMTktLjE2Ni0uMDItLjE2NS0uMDIxLS4xNjMtLjAyMi0uMTYyLS4wMjMtLjE2MS0uMDI0LS4xNTktLjAyNS0uMTU3LS4wMjYtLjE1Ni0uMDI3LS4xNTUtLjAyOC0uMTUzLS4wMjgtLjE1MS0uMDMtLjE1LS4wMy0uMTQ4LS4wMzEtLjE0Ni0uMDMzLS4xNDUtLjAzMy0uMTQzLS4wMzMtLjE0MS0uMDM1LS4xNC0uMDM2LS4xMzctLjAzNi0uMTM2LS4wMzctLjEzNC0uMDM4LS4xMzItLjAzOS0uMTMtLjAzOS0uMTI4LS4wNC0uMTI2LS4wNDEtLjEyNC0uMDQyLS4xMjItLjA0My0uMTItLjA0My0uMTE3LS4wNDQtLjExNi0uMDQ0LS4xMTMtLjA0Ni0uMTEyLS4wNDYtLjEwOS0uMDQ2LS4xMDYtLjA0Ny0uMTA1LS4wNDgtLjEwMi0uMDQ5LS4xLS4wNDktLjA5Ny0uMDUtLjA5NS0uMDUxLS4wOTMtLjA1MS0uMDktLjA1MS0uMDg3LS4wNTMtLjA4NS0uMDUyLS4wODMtLjA1NC0uMDgtLjA1NC0uMDc3LS4wNTR2NC4xMzl6bTAtNS42NjZ2LjAxMWwuMDAxLjAyLjAwMy4wMjIuMDA0LjAyMS4wMDUuMDIyLjAwNi4wMjEuMDA3LjAyMi4wMDkuMDIzLjAxLjAyMi4wMTEuMDIzLjAxMi4wMjMuMDEzLjAyMy4wMTUuMDIzLjAxNi4wMjQuMDE3LjAyNC4wMTguMDIzLjAxOS4wMjQuMDIxLjAyNS4wMjIuMDI0LjAyMy4wMjQuMDI0LjAyNS4wNTIuMDUuMDU2LjA1LjA2MS4wNS4wNjYuMDUxLjA3LjA1MS4wNzUuMDUyLjA3OS4wNTEuMDg0LjA1Mi4wODguMDUyLjA5Mi4wNTIuMDk3LjA1Mi4xMDIuMDUyLjEwNS4wNTEuMTEuMDUyLjExNC4wNTEuMTE5LjA1MS4xMjMuMDUxLjEyNy4wNS4xMzEuMDUuMTM1LjA1LjEzOS4wNDkuMTQ0LjA0OC4xNDcuMDQ4LjE1Mi4wNDcuMTU1LjA0Ni4xNi4wNDUuMTYzLjA0NS4xNjcuMDQzLjE3MS4wNDMuMTc2LjA0Mi4xNzguMDQuMTgzLjA0LjE4Ny4wMzguMTkuMDM3LjE5NC4wMzYuMTk3LjAzNC4yMDIuMDMzLjIwNC4wMzIuMjA5LjAzLjIxMi4wMjguMjE2LjAyNy4yMTkuMDI1LjIyMi4wMjQuMjI2LjAyMS4yMy4wMi4yMzMuMDE4LjIzNi4wMTcuMjQuMDE0LjI0My4wMTIuMjQ2LjAxLjI0OS4wMDguMjUzLjAwNi4yNTYuMDAzLjI1OS4wMDEuMjYtLjAwMS4yNTctLjAwMy4yNTQtLjAwNi4yNS0uMDA4LjI0Ny0uMDEuMjQ0LS4wMTMuMjQxLS4wMTQuMjM3LS4wMTYuMjMzLS4wMTguMjMxLS4wMi4yMjYtLjAyMi4yMjQtLjAyNC4yMi0uMDI1LjIxNi0uMDI3LjIxMi0uMDI5LjIxLS4wMy4yMDUtLjAzMi4yMDItLjAzMy4xOTgtLjAzNS4xOTQtLjAzNi4xOTEtLjAzNy4xODctLjAzOS4xODMtLjAzOS4xNzktLjA0MS4xNzUtLjA0Mi4xNzItLjA0My4xNjgtLjA0NC4xNjMtLjA0NS4xNi0uMDQ1LjE1NS0uMDQ3LjE1Mi0uMDQ3LjE0OC0uMDQ4LjE0My0uMDQ5LjEzOS0uMDQ5LjEzNi0uMDQ5LjEzMS0uMDUxLjEyNi0uMDUuMTIzLS4wNTEuMTE4LS4wNTIuMTE0LS4wNTEuMTEtLjA1Mi4xMDYtLjA1Mi4xMDEtLjA1Mi4wOTYtLjA1Mi4wOTItLjA1Mi4wODgtLjA1Mi4wODMtLjA1Mi4wNzktLjA1Mi4wNzQtLjA1Mi4wNy0uMDUxLjA2NS0uMDUxLjA2LS4wNTEuMDU2LS4wNS4wNTEtLjA0OS4wMjMtLjAyNS4wMjMtLjAyNS4wMjEtLjAyNC4wMi0uMDI0LjAxOS0uMDI0LjAxOC0uMDI0LjAxNy0uMDI0LjAxNS0uMDIzLjAxNC0uMDI0LjAxMy0uMDIzLjAxMi0uMDIzLjAxLS4wMjIuMDEtLjAyMy4wMDgtLjAyMi4wMDYtLjAyMi4wMDYtLjAyMi4wMDQtLjAyMi4wMDQtLjAyMS4wMDEtLjAyMS4wMDEtLjAyMXYtNC4xNTNsLS4wNzcuMDU0LS4wOC4wNTQtLjA4My4wNTMtLjA4NS4wNTMtLjA4Ny4wNTMtLjA5LjA1MS0uMDkzLjA1MS0uMDk1LjA1MS0uMDk3LjA1LS4xLjA0OS0uMTAyLjA0OC0uMTA1LjA0OC0uMTA2LjA0OC0uMTA5LjA0Ni0uMTExLjA0Ni0uMTE0LjA0Ni0uMTE1LjA0NC0uMTE4LjA0NC0uMTIuMDQzLS4xMjIuMDQzLS4xMjQuMDQyLS4xMjYuMDQxLS4xMjguMDQtLjEzLjAzOS0uMTMyLjAzOS0uMTM0LjAzOC0uMTM1LjAzNy0uMTM4LjAzNi0uMTM5LjAzNi0uMTQyLjAzNC0uMTQzLjAzNC0uMTQ0LjAzMy0uMTQ3LjAzMi0uMTQ4LjAzMi0uMTUuMDMtLjE1MS4wMy0uMTUzLjAyOC0uMTU0LjAyOC0uMTU2LjAyNy0uMTU4LjAyNi0uMTU5LjAyNC0uMTYxLjAyNC0uMTYyLjAyMy0uMTYzLjAyMy0uMTY1LjAyMS0uMTY2LjAyLS4xNjcuMDE5LS4xNjkuMDE4LS4xNjkuMDE3LS4xNzEuMDE2LS4xNzMuMDE1LS4xNzMuMDE0LS4xNzUuMDEzLS4xNzUuMDEyLS4xNzcuMDEtLjE3OC4wMS0uMTc5LjAwOS0uMTc5LjAwNy0uMTgxLjAwNi0uMTgyLjAwNi0uMTgyLjAwNC0uMTg0LjAwMy0uMTg0LjAwMS0uMTg1LjAwMS0uMTg1LS4wMDEtLjE4NC0uMDAxLS4xODQtLjAwMy0uMTgyLS4wMDQtLjE4Mi0uMDA2LS4xODEtLjAwNi0uMTc5LS4wMDctLjE3OS0uMDA5LS4xNzgtLjAxLS4xNzYtLjAxLS4xNzYtLjAxMi0uMTc1LS4wMTMtLjE3My0uMDE0LS4xNzItLjAxNS0uMTcxLS4wMTYtLjE3LS4wMTctLjE2OS0uMDE4LS4xNjctLjAxOS0uMTY2LS4wMi0uMTY1LS4wMjEtLjE2My0uMDIzLS4xNjItLjAyMy0uMTYxLS4wMjQtLjE1OS0uMDI0LS4xNTctLjAyNi0uMTU2LS4wMjctLjE1NS0uMDI4LS4xNTMtLjAyOC0uMTUxLS4wMy0uMTUtLjAzLS4xNDgtLjAzMi0uMTQ2LS4wMzItLjE0NS0uMDMzLS4xNDMtLjAzNC0uMTQxLS4wMzQtLjE0LS4wMzYtLjEzNy0uMDM2LS4xMzYtLjAzNy0uMTM0LS4wMzgtLjEzMi0uMDM5LS4xMy0uMDM5LS4xMjgtLjA0MS0uMTI2LS4wNDEtLjEyNC0uMDQxLS4xMjItLjA0My0uMTItLjA0My0uMTE3LS4wNDQtLjExNi0uMDQ0LS4xMTMtLjA0Ni0uMTEyLS4wNDYtLjEwOS0uMDQ2LS4xMDYtLjA0OC0uMTA1LS4wNDgtLjEwMi0uMDQ4LS4xLS4wNS0uMDk3LS4wNDktLjA5NS0uMDUxLS4wOTMtLjA1MS0uMDktLjA1Mi0uMDg3LS4wNTItLjA4NS0uMDUzLS4wODMtLjA1My0uMDgtLjA1NC0uMDc3LS4wNTR2NC4xNTN6bTguNzQtOC4xNzlsLS4yNTcuMDA0LS4yNTQuMDA1LS4yNS4wMDgtLjI0Ny4wMTEtLjI0NC4wMTItLjI0MS4wMTQtLjIzNy4wMTYtLjIzMy4wMTgtLjIzMS4wMjEtLjIyNi4wMjItLjIyNC4wMjMtLjIyLjAyNi0uMjE2LjAyNy0uMjEyLjAyOC0uMjEuMDMxLS4yMDUuMDMyLS4yMDIuMDMzLS4xOTguMDM0LS4xOTQuMDM2LS4xOTEuMDM4LS4xODcuMDM4LS4xODMuMDQtLjE3OS4wNDEtLjE3NS4wNDItLjE3Mi4wNDMtLjE2OC4wNDMtLjE2My4wNDUtLjE2LjA0Ni0uMTU1LjA0Ni0uMTUyLjA0OC0uMTQ4LjA0OC0uMTQzLjA0OC0uMTM5LjA0OS0uMTM2LjA1LS4xMzEuMDUtLjEyNi4wNTEtLjEyMy4wNTEtLjExOC4wNTEtLjExNC4wNTItLjExLjA1Mi0uMTA2LjA1Mi0uMTAxLjA1Mi0uMDk2LjA1Mi0uMDkyLjA1Mi0uMDg4LjA1Mi0uMDgzLjA1Mi0uMDc5LjA1Mi0uMDc0LjA1MS0uMDcuMDUyLS4wNjUuMDUxLS4wNi4wNS0uMDU2LjA1LS4wNTEuMDUtLjAyMy4wMjUtLjAyMy4wMjQtLjAyMS4wMjQtLjAyLjAyNS0uMDE5LjAyNC0uMDE4LjAyNC0uMDE3LjAyMy0uMDE1LjAyNC0uMDE0LjAyMy0uMDEzLjAyMy0uMDEyLjAyMy0uMDEuMDIzLS4wMS4wMjItLjAwOC4wMjItLjAwNi4wMjMtLjAwNi4wMjEtLjAwNC4wMjItLjAwNC4wMjEtLjAwMS4wMjEtLjAwMS4wMjEuMDAxLjAyMS4wMDEuMDIxLjAwNC4wMjEuMDA0LjAyMi4wMDYuMDIxLjAwNi4wMjMuMDA4LjAyMi4wMS4wMjIuMDEuMDIzLjAxMi4wMjMuMDEzLjAyMy4wMTQuMDIzLjAxNS4wMjQuMDE3LjAyMy4wMTguMDI0LjAxOS4wMjQuMDIuMDI1LjAyMS4wMjQuMDIzLjAyNC4wMjMuMDI1LjA1MS4wNS4wNTYuMDUuMDYuMDUuMDY1LjA1MS4wNy4wNTIuMDc0LjA1MS4wNzkuMDUyLjA4My4wNTIuMDg4LjA1Mi4wOTIuMDUyLjA5Ni4wNTIuMTAxLjA1Mi4xMDYuMDUyLjExLjA1Mi4xMTQuMDUyLjExOC4wNTEuMTIzLjA1MS4xMjYuMDUxLjEzMS4wNS4xMzYuMDUuMTM5LjA0OS4xNDMuMDQ4LjE0OC4wNDguMTUyLjA0OC4xNTUuMDQ2LjE2LjA0Ni4xNjMuMDQ1LjE2OC4wNDMuMTcyLjA0My4xNzUuMDQyLjE3OS4wNDEuMTgzLjA0LjE4Ny4wMzguMTkxLjAzOC4xOTQuMDM2LjE5OC4wMzQuMjAyLjAzMy4yMDUuMDMyLjIxLjAzMS4yMTIuMDI4LjIxNi4wMjcuMjIuMDI2LjIyNC4wMjMuMjI2LjAyMi4yMzEuMDIxLjIzMy4wMTguMjM3LjAxNi4yNDEuMDE0LjI0NC4wMTIuMjQ3LjAxMS4yNS4wMDguMjU0LjAwNS4yNTcuMDA0LjI2LjAwMS4yNi0uMDAxLjI1Ny0uMDA0LjI1NC0uMDA1LjI1LS4wMDguMjQ3LS4wMTEuMjQ0LS4wMTIuMjQxLS4wMTQuMjM3LS4wMTYuMjMzLS4wMTguMjMxLS4wMjEuMjI2LS4wMjIuMjI0LS4wMjMuMjItLjAyNi4yMTYtLjAyNy4yMTItLjAyOC4yMS0uMDMxLjIwNS0uMDMyLjIwMi0uMDMzLjE5OC0uMDM0LjE5NC0uMDM2LjE5MS0uMDM4LjE4Ny0uMDM4LjE4My0uMDQuMTc5LS4wNDEuMTc1LS4wNDIuMTcyLS4wNDMuMTY4LS4wNDMuMTYzLS4wNDUuMTYtLjA0Ni4xNTUtLjA0Ni4xNTItLjA0OC4xNDgtLjA0OC4xNDMtLjA0OC4xMzktLjA0OS4xMzYtLjA1LjEzMS0uMDUuMTI2LS4wNTEuMTIzLS4wNTEuMTE4LS4wNTEuMTE0LS4wNTIuMTEtLjA1Mi4xMDYtLjA1Mi4xMDEtLjA1Mi4wOTYtLjA1Mi4wOTItLjA1Mi4wODgtLjA1Mi4wODMtLjA1Mi4wNzktLjA1Mi4wNzQtLjA1MS4wNy0uMDUyLjA2NS0uMDUxLjA2LS4wNS4wNTYtLjA1LjA1MS0uMDUuMDIzLS4wMjUuMDIzLS4wMjQuMDIxLS4wMjQuMDItLjAyNS4wMTktLjAyNC4wMTgtLjAyNC4wMTctLjAyMy4wMTUtLjAyNC4wMTQtLjAyMy4wMTMtLjAyMy4wMTItLjAyMy4wMS0uMDIzLjAxLS4wMjIuMDA4LS4wMjIuMDA2LS4wMjMuMDA2LS4wMjEuMDA0LS4wMjIuMDA0LS4wMjEuMDAxLS4wMjEuMDAxLS4wMjEtLjAwMS0uMDIxLS4wMDEtLjAyMS0uMDA0LS4wMjEtLjAwNC0uMDIyLS4wMDYtLjAyMS0uMDA2LS4wMjMtLjAwOC0uMDIyLS4wMS0uMDIyLS4wMS0uMDIzLS4wMTItLjAyMy0uMDEzLS4wMjMtLjAxNC0uMDIzLS4wMTUtLjAyNC0uMDE3LS4wMjMtLjAxOC0uMDI0LS4wMTktLjAyNC0uMDItLjAyNS0uMDIxLS4wMjQtLjAyMy0uMDI0LS4wMjMtLjAyNS0uMDUxLS4wNS0uMDU2LS4wNS0uMDYtLjA1LS4wNjUtLjA1MS0uMDctLjA1Mi0uMDc0LS4wNTEtLjA3OS0uMDUyLS4wODMtLjA1Mi0uMDg4LS4wNTItLjA5Mi0uMDUyLS4wOTYtLjA1Mi0uMTAxLS4wNTItLjEwNi0uMDUyLS4xMS0uMDUyLS4xMTQtLjA1Mi0uMTE4LS4wNTEtLjEyMy0uMDUxLS4xMjYtLjA1MS0uMTMxLS4wNS0uMTM2LS4wNS0uMTM5LS4wNDktLjE0My0uMDQ4LS4xNDgtLjA0OC0uMTUyLS4wNDgtLjE1NS0uMDQ2LS4xNi0uMDQ2LS4xNjMtLjA0NS0uMTY4LS4wNDMtLjE3Mi0uMDQzLS4xNzUtLjA0Mi0uMTc5LS4wNDEtLjE4My0uMDQtLjE4Ny0uMDM4LS4xOTEtLjAzOC0uMTk0LS4wMzYtLjE5OC0uMDM0LS4yMDItLjAzMy0uMjA1LS4wMzItLjIxLS4wMzEtLjIxMi0uMDI4LS4yMTYtLjAyNy0uMjItLjAyNi0uMjI0LS4wMjMtLjIyNi0uMDIyLS4yMzEtLjAyMS0uMjMzLS4wMTgtLjIzNy0uMDE2LS4yNDEtLjAxNC0uMjQ0LS4wMTItLjI0Ny0uMDExLS4yNS0uMDA4LS4yNTQtLjAwNS0uMjU3LS4wMDQtLjI2LS4wMDEtLjI2LjAwMXoiIHRyYW5zZm9ybT0ic2NhbGUoLjUpIj48L3BhdGg+PC9zeW1ib2w+PC9kZWZzPjxkZWZzPjxzeW1ib2wgaGVpZ2h0PSIyNCIgd2lkdGg9IjI0IiBpZD0iY2xvY2siPjxwYXRoIGQ9Ik0xMiAyYzUuNTE0IDAgMTAgNC40ODYgMTAgMTBzLTQuNDg2IDEwLTEwIDEwLTEwLTQuNDg2LTEwLTEwIDQuNDg2LTEwIDEwLTEwem0wLTJjLTYuNjI3IDAtMTIgNS4zNzMtMTIgMTJzNS4zNzMgMTIgMTIgMTIgMTItNS4zNzMgMTItMTItNS4zNzMtMTItMTItMTJ6bTUuODQ4IDEyLjQ1OWMuMjAyLjAzOC4yMDIuMzMzLjAwMS4zNzItMS45MDcuMzYxLTYuMDQ1IDEuMTExLTYuNTQ3IDEuMTExLS43MTkgMC0xLjMwMS0uNTgyLTEuMzAxLTEuMzAxIDAtLjUxMi43Ny01LjQ0NyAxLjEyNS03LjQ0NS4wMzQtLjE5Mi4zMTItLjE4MS4zNDMuMDE0bC45ODUgNi4yMzggNS4zOTQgMS4wMTF6IiB0cmFuc2Zvcm09InNjYWxlKC41KSI+PC9wYXRoPjwvc3ltYm9sPjwvZGVmcz48ZGVmcz48bWFya2VyIG9yaWVudD0iYXV0by1zdGFydC1yZXZlcnNlIiBtYXJrZXJIZWlnaHQ9IjEyIiBtYXJrZXJXaWR0aD0iMTIiIG1hcmtlclVuaXRzPSJ1c2VyU3BhY2VPblVzZSIgcmVmWT0iNSIgcmVmWD0iNy45IiBpZD0iYXJyb3doZWFkIj48cGF0aCBkPSJNIC0xIDAgTCAxMCA1IEwgMCAxMCB6Ij48L3BhdGg+PC9tYXJrZXI+PC9kZWZzPjxkZWZzPjxtYXJrZXIgcmVmWT0iNC41IiByZWZYPSI0IiBvcmllbnQ9ImF1dG8iIG1hcmtlckhlaWdodD0iOCIgbWFya2VyV2lkdGg9IjE1IiBpZD0iY3Jvc3NoZWFkIj48cGF0aCBzdHlsZT0ic3Ryb2tlLWRhc2hhcnJheTogMCwgMDsiIGQ9Ik0gMSwyIEwgNiw3IE0gNiwyIEwgMSw3IiBzdHJva2Utd2lkdGg9IjFwdCIgc3Ryb2tlPSIjMDAwMDAwIiBmaWxsPSJub25lIj48L3BhdGg+PC9tYXJrZXI+PC9kZWZzPjxkZWZzPjxtYXJrZXIgb3JpZW50PSJhdXRvIiBtYXJrZXJIZWlnaHQ9IjI4IiBtYXJrZXJXaWR0aD0iMjAiIHJlZlk9IjciIHJlZlg9IjE1LjUiIGlkPSJmaWxsZWQtaGVhZCI+PHBhdGggZD0iTSAxOCw3IEw5LDEzIEwxNCw3IEw5LDEgWiI+PC9wYXRoPjwvbWFya2VyPjwvZGVmcz48ZGVmcz48bWFya2VyIG9yaWVudD0iYXV0byIgbWFya2VySGVpZ2h0PSI0MCIgbWFya2VyV2lkdGg9IjYwIiByZWZZPSIxNSIgcmVmWD0iMTUiIGlkPSJzZXF1ZW5jZW51bWJlciI+PGNpcmNsZSByPSI2IiBjeT0iMTUiIGN4PSIxNSI+PC9jaXJjbGU+PC9tYXJrZXI+PC9kZWZzPjx0ZXh0IHN0eWxlPSJmb250LXNpemU6IDE2cHg7IGZvbnQtd2VpZ2h0OiA0MDA7IiBkeT0iMWVtIiBjbGFzcz0ibWVzc2FnZVRleHQiIGFsaWdubWVudC1iYXNlbGluZT0ibWlkZGxlIiBkb21pbmFudC1iYXNlbGluZT0ibWlkZGxlIiB0ZXh0LWFuY2hvcj0ibWlkZGxlIiB5PSI4MCIgeD0iMTc0Ij5Mb2FkIGFwcGxpY2F0aW9uPC90ZXh0PjxsaW5lIHN0eWxlPSJmaWxsOiBub25lOyIgbWFya2VyLWVuZD0idXJsKCNhcnJvd2hlYWQpIiBzdHJva2U9Im5vbmUiIHN0cm9rZS13aWR0aD0iMiIgY2xhc3M9Im1lc3NhZ2VMaW5lMCIgeTI9IjExNyIgeDI9IjI3MSIgeTE9IjExNyIgeDE9Ijc2Ij48L2xpbmU+PHRleHQgc3R5bGU9ImZvbnQtc2l6ZTogMTZweDsgZm9udC13ZWlnaHQ6IDQwMDsiIGR5PSIxZW0iIGNsYXNzPSJtZXNzYWdlVGV4dCIgYWxpZ25tZW50LWJhc2VsaW5lPSJtaWRkbGUiIGRvbWluYW50LWJhc2VsaW5lPSJtaWRkbGUiIHRleHQtYW5jaG9yPSJtaWRkbGUiIHk9IjEzMiIgeD0iNjI4Ij5SZW5kZXIgU2V0dXBNb2RhbCAoaW5pdGlhbGx5IGhpZGRlbiBvciBzaG93biBiYXNlZCBvbiBzdGF0ZSk8L3RleHQ+PGxpbmUgc3R5bGU9ImZpbGw6IG5vbmU7IiBtYXJrZXItZW5kPSJ1cmwoI2Fycm93aGVhZCkiIHN0cm9rZT0ibm9uZSIgc3Ryb2tlLXdpZHRoPSIyIiBjbGFzcz0ibWVzc2FnZUxpbmUwIiB5Mj0iMTY5IiB4Mj0iOTgwIiB5MT0iMTY5IiB4MT0iMjc2Ij48L2xpbmU+PHRleHQgc3R5bGU9ImZvbnQtc2l6ZTogMTZweDsgZm9udC13ZWlnaHQ6IDQwMDsiIGR5PSIxZW0iIGNsYXNzPSJtZXNzYWdlVGV4dCIgYWxpZ25tZW50LWJhc2VsaW5lPSJtaWRkbGUiIGRvbWluYW50LWJhc2VsaW5lPSJtaWRkbGUiIHRleHQtYW5jaG9yPSJtaWRkbGUiIHk9IjE4NCIgeD0iNzMyIj5SZW5kZXIgQ2FsZW5kYXJDb21wb25lbnQgKGluaXRpYWxseSBlbXB0eSBvciB3aXRoIGRlZmF1bHQgZGF0YSk8L3RleHQ+PGxpbmUgc3R5bGU9ImZpbGw6IG5vbmU7IiBtYXJrZXItZW5kPSJ1cmwoI2Fycm93aGVhZCkiIHN0cm9rZT0ibm9uZSIgc3Ryb2tlLXdpZHRoPSIyIiBjbGFzcz0ibWVzc2FnZUxpbmUwIiB5Mj0iMjIxIiB4Mj0iMTE4OCIgeTE9IjIyMSIgeDE9IjI3NiI+PC9saW5lPjx0ZXh0IHN0eWxlPSJmb250LXNpemU6IDE2cHg7IGZvbnQtd2VpZ2h0OiA0MDA7IiBkeT0iMWVtIiBjbGFzcz0ibWVzc2FnZVRleHQiIGFsaWdubWVudC1iYXNlbGluZT0ibWlkZGxlIiBkb21pbmFudC1iYXNlbGluZT0ibWlkZGxlIiB0ZXh0LWFuY2hvcj0ibWlkZGxlIiB5PSIyMzYiIHg9IjUyOCI+SW5wdXQgc2V0dXAgZGV0YWlscyBhbmQgc3VibWl0PC90ZXh0PjxsaW5lIHN0eWxlPSJmaWxsOiBub25lOyIgbWFya2VyLWVuZD0idXJsKCNhcnJvd2hlYWQpIiBzdHJva2U9Im5vbmUiIHN0cm9rZS13aWR0aD0iMiIgY2xhc3M9Im1lc3NhZ2VMaW5lMCIgeTI9IjI3MyIgeDI9Ijk4MCIgeTE9IjI3MyIgeDE9Ijc2Ij48L2xpbmU+PHRleHQgc3R5bGU9ImZvbnQtc2l6ZTogMTZweDsgZm9udC13ZWlnaHQ6IDQwMDsiIGR5PSIxZW0iIGNsYXNzPSJtZXNzYWdlVGV4dCIgYWxpZ25tZW50LWJhc2VsaW5lPSJtaWRkbGUiIGRvbWluYW50LWJhc2VsaW5lPSJtaWRkbGUiIHRleHQtYW5jaG9yPSJtaWRkbGUiIHk9IjI4OCIgeD0iNjMxIj5DYWxsIHNldFN0YXRlIGNhbGxiYWNrcyAoc2V0U3RhcnREYXRlLCBzZXRFbmREYXRlLCBzZXRTZW0sIHNldERlcHQsIHNldFN0YXJ0WWVhciwgc2V0RW5kWWVhcik8L3RleHQ+PGxpbmUgc3R5bGU9ImZpbGw6IG5vbmU7IiBtYXJrZXItZW5kPSJ1cmwoI2Fycm93aGVhZCkiIHN0cm9rZT0ibm9uZSIgc3Ryb2tlLXdpZHRoPSIyIiBjbGFzcz0ibWVzc2FnZUxpbmUwIiB5Mj0iMzI1IiB4Mj0iMjc5IiB5MT0iMzI1IiB4MT0iOTgzIj48L2xpbmU+PHRleHQgc3R5bGU9ImZvbnQtc2l6ZTogMTZweDsgZm9udC13ZWlnaHQ6IDQwMDsiIGR5PSIxZW0iIGNsYXNzPSJtZXNzYWdlVGV4dCIgYWxpZ25tZW50LWJhc2VsaW5lPSJtaWRkbGUiIGRvbWluYW50LWJhc2VsaW5lPSJtaWRkbGUiIHRleHQtYW5jaG9yPSJtaWRkbGUiIHk9IjM0MCIgeD0iNjMxIj5DYWxsIG9uQ2xvc2UgY2FsbGJhY2s8L3RleHQ+PGxpbmUgc3R5bGU9ImZpbGw6IG5vbmU7IiBtYXJrZXItZW5kPSJ1cmwoI2Fycm93aGVhZCkiIHN0cm9rZT0ibm9uZSIgc3Ryb2tlLXdpZHRoPSIyIiBjbGFzcz0ibWVzc2FnZUxpbmUwIiB5Mj0iMzc3IiB4Mj0iMjc5IiB5MT0iMzc3IiB4MT0iOTgzIj48L2xpbmU+PHRleHQgc3R5bGU9ImZvbnQtc2l6ZTogMTZweDsgZm9udC13ZWlnaHQ6IDQwMDsiIGR5PSIxZW0iIGNsYXNzPSJtZXNzYWdlVGV4dCIgYWxpZ25tZW50LWJhc2VsaW5lPSJtaWRkbGUiIGRvbWluYW50LWJhc2VsaW5lPSJtaWRkbGUiIHRleHQtYW5jaG9yPSJtaWRkbGUiIHk9IjM5MiIgeD0iNjI4Ij5VcGRhdGUgc3RhdGUgYW5kIHJlLXJlbmRlciAoaGlkaW5nIFNldHVwTW9kYWwpPC90ZXh0PjxsaW5lIHN0eWxlPSJmaWxsOiBub25lOyIgbWFya2VyLWVuZD0idXJsKCNhcnJvd2hlYWQpIiBzdHJva2U9Im5vbmUiIHN0cm9rZS13aWR0aD0iMiIgY2xhc3M9Im1lc3NhZ2VMaW5lMCIgeTI9IjQyOSIgeDI9Ijk4MCIgeTE9IjQyOSIgeDE9IjI3NiI+PC9saW5lPjx0ZXh0IHN0eWxlPSJmb250LXNpemU6IDE2cHg7IGZvbnQtd2VpZ2h0OiA0MDA7IiBkeT0iMWVtIiBjbGFzcz0ibWVzc2FnZVRleHQiIGFsaWdubWVudC1iYXNlbGluZT0ibWlkZGxlIiBkb21pbmFudC1iYXNlbGluZT0ibWlkZGxlIiB0ZXh0LWFuY2hvcj0ibWlkZGxlIiB5PSI0NDQiIHg9IjczMiI+UmUtcmVuZGVyIHdpdGggdXBkYXRlZCBwcm9wcyAoc3RhcnREYXRlLCBlbmREYXRlLCBzZW0sIGRlcHQsIHllYXJzKTwvdGV4dD48bGluZSBzdHlsZT0iZmlsbDogbm9uZTsiIG1hcmtlci1lbmQ9InVybCgjYXJyb3doZWFkKSIgc3Ryb2tlPSJub25lIiBzdHJva2Utd2lkdGg9IjIiIGNsYXNzPSJtZXNzYWdlTGluZTAiIHkyPSI0ODEiIHgyPSIxMTg4IiB5MT0iNDgxIiB4MT0iMjc2Ij48L2xpbmU+PHRleHQgc3R5bGU9ImZvbnQtc2l6ZTogMTZweDsgZm9udC13ZWlnaHQ6IDQwMDsiIGR5PSIxZW0iIGNsYXNzPSJtZXNzYWdlVGV4dCIgYWxpZ25tZW50LWJhc2VsaW5lPSJtaWRkbGUiIGRvbWluYW50LWJhc2VsaW5lPSJtaWRkbGUiIHRleHQtYW5jaG9yPSJtaWRkbGUiIHk9IjQ5NiIgeD0iMTQ4MyI+VXNlIHV0aWxpdHkgZnVuY3Rpb25zIChlLmcuLCBwYXJzZUlTTywgZWFjaERheU9mSW50ZXJ2YWwpIHRvIGNhbGN1bGF0ZSBkYXRlczwvdGV4dD48bGluZSBzdHlsZT0iZmlsbDogbm9uZTsiIG1hcmtlci1lbmQ9InVybCgjYXJyb3doZWFkKSIgc3Ryb2tlPSJub25lIiBzdHJva2Utd2lkdGg9IjIiIGNsYXNzPSJtZXNzYWdlTGluZTAiIHkyPSI1MzMiIHgyPSIxNzcyIiB5MT0iNTMzIiB4MT0iMTE5MyI+PC9saW5lPjx0ZXh0IHN0eWxlPSJmb250LXNpemU6IDE2cHg7IGZvbnQtd2VpZ2h0OiA0MDA7IiBkeT0iMWVtIiBjbGFzcz0ibWVzc2FnZVRleHQiIGFsaWdubWVudC1iYXNlbGluZT0ibWlkZGxlIiBkb21pbmFudC1iYXNlbGluZT0ibWlkZGxlIiB0ZXh0LWFuY2hvcj0ibWlkZGxlIiB5PSI1NDgiIHg9IjExOTMiPkdlbmVyYXRlIGNhbGVuZGFyIGRhdGEgKHdlZWtzKTwvdGV4dD48cGF0aCBzdHlsZT0ic3Ryb2tlLWRhc2hhcnJheTogMywgMzsgZmlsbDogbm9uZTsiIG1hcmtlci1lbmQ9InVybCgjYXJyb3doZWFkKSIgc3Ryb2tlPSJub25lIiBzdHJva2Utd2lkdGg9IjIiIGNsYXNzPSJtZXNzYWdlTGluZTEiIGQ9Ik0gMTE5Myw1ODUgQyAxMjUzLDU3NSAxMjUzLDYxNSAxMTkzLDYwNSI+PC9wYXRoPjx0ZXh0IHN0eWxlPSJmb250LXNpemU6IDE2cHg7IGZvbnQtd2VpZ2h0OiA0MDA7IiBkeT0iMWVtIiBjbGFzcz0ibWVzc2FnZVRleHQiIGFsaWdubWVudC1iYXNlbGluZT0ibWlkZGxlIiBkb21pbmFudC1iYXNlbGluZT0ibWlkZGxlIiB0ZXh0LWFuY2hvcj0ibWlkZGxlIiB5PSI2MzAiIHg9IjYzNSI+RGlzcGxheSBnZW5lcmF0ZWQgY2FsZW5kYXI8L3RleHQ+PGxpbmUgc3R5bGU9ImZpbGw6IG5vbmU7IiBtYXJrZXItZW5kPSJ1cmwoI2Fycm93aGVhZCkiIHN0cm9rZT0ibm9uZSIgc3Ryb2tlLXdpZHRoPSIyIiBjbGFzcz0ibWVzc2FnZUxpbmUwIiB5Mj0iNjY3IiB4Mj0iNzkiIHkxPSI2NjciIHgxPSIxMTkxIj48L2xpbmU+PC9zdmc+;imageBackground=default;fontStyle=2" vertex="1" parent="1">
                        <mxGeometry x="-1960" y="-20" width="1951" height="773" as="geometry"/>
                    </mxCell>
                </UserObject>
            </root>
        </mxGraphModel>
    </diagram>
</mxfile>